<mxfile host="app.diagrams.net" modified="2023-09-17T07:16:57.279Z" agent="Mozilla/5.0 (Macintosh; Intel Mac OS X 10_15_7) AppleWebKit/537.36 (KHTML, like Gecko) Chrome/116.0.0.0 Safari/537.36" etag="wRrlfCzNB1ZvYmOTmsOu" version="21.7.5" type="github">
  <diagram id="C5RBs43oDa-KdzZeNtuy" name="Page-1">
    <mxGraphModel dx="693" dy="1609" grid="1" gridSize="10" guides="1" tooltips="1" connect="1" arrows="1" fold="1" page="1" pageScale="1" pageWidth="1169" pageHeight="827" math="0" shadow="0">
      <root>
        <mxCell id="WIyWlLk6GJQsqaUBKTNV-0" />
        <mxCell id="WIyWlLk6GJQsqaUBKTNV-1" parent="WIyWlLk6GJQsqaUBKTNV-0" />
        <mxCell id="3M0hzA5NV7Xp9_MbIo7x-3" value="" style="edgeStyle=orthogonalEdgeStyle;rounded=0;orthogonalLoop=1;jettySize=auto;html=1;" edge="1" parent="WIyWlLk6GJQsqaUBKTNV-1" source="3M0hzA5NV7Xp9_MbIo7x-1" target="3M0hzA5NV7Xp9_MbIo7x-2">
          <mxGeometry relative="1" as="geometry" />
        </mxCell>
        <mxCell id="3M0hzA5NV7Xp9_MbIo7x-8" value="Compiles to:" style="edgeLabel;html=1;align=center;verticalAlign=middle;resizable=0;points=[];" vertex="1" connectable="0" parent="3M0hzA5NV7Xp9_MbIo7x-3">
          <mxGeometry x="0.0154" y="3" relative="1" as="geometry">
            <mxPoint y="-7" as="offset" />
          </mxGeometry>
        </mxCell>
        <mxCell id="3M0hzA5NV7Xp9_MbIo7x-1" value="Plain Text Work Instruction&lt;br&gt;(written in strcutred DSL)&lt;br&gt;" style="rounded=1;whiteSpace=wrap;html=1;" vertex="1" parent="WIyWlLk6GJQsqaUBKTNV-1">
          <mxGeometry x="69.05" y="95" width="230" height="70" as="geometry" />
        </mxCell>
        <mxCell id="3M0hzA5NV7Xp9_MbIo7x-10" style="edgeStyle=orthogonalEdgeStyle;rounded=0;orthogonalLoop=1;jettySize=auto;html=1;" edge="1" parent="WIyWlLk6GJQsqaUBKTNV-1" source="3M0hzA5NV7Xp9_MbIo7x-2" target="3M0hzA5NV7Xp9_MbIo7x-19">
          <mxGeometry relative="1" as="geometry">
            <mxPoint x="545" y="270" as="targetPoint" />
          </mxGeometry>
        </mxCell>
        <mxCell id="3M0hzA5NV7Xp9_MbIo7x-11" value="Published to Server" style="edgeLabel;html=1;align=center;verticalAlign=middle;resizable=0;points=[];" vertex="1" connectable="0" parent="3M0hzA5NV7Xp9_MbIo7x-10">
          <mxGeometry x="0.0182" y="1" relative="1" as="geometry">
            <mxPoint as="offset" />
          </mxGeometry>
        </mxCell>
        <mxCell id="3M0hzA5NV7Xp9_MbIo7x-2" value="Javascript Web Application" style="rounded=1;whiteSpace=wrap;html=1;" vertex="1" parent="WIyWlLk6GJQsqaUBKTNV-1">
          <mxGeometry x="430" y="100" width="230" height="60" as="geometry" />
        </mxCell>
        <mxCell id="3M0hzA5NV7Xp9_MbIo7x-28" style="edgeStyle=orthogonalEdgeStyle;rounded=0;orthogonalLoop=1;jettySize=auto;html=1;entryX=0.982;entryY=0.58;entryDx=0;entryDy=0;exitX=-0.053;exitY=0.734;exitDx=0;exitDy=0;exitPerimeter=0;entryPerimeter=0;fillColor=#d5e8d4;strokeColor=#82b366;" edge="1" parent="WIyWlLk6GJQsqaUBKTNV-1" source="3M0hzA5NV7Xp9_MbIo7x-12" target="3M0hzA5NV7Xp9_MbIo7x-19">
          <mxGeometry relative="1" as="geometry">
            <Array as="points">
              <mxPoint x="840" y="154" />
              <mxPoint x="840" y="358" />
            </Array>
          </mxGeometry>
        </mxCell>
        <mxCell id="3M0hzA5NV7Xp9_MbIo7x-29" value="Client&amp;nbsp; posts&lt;br&gt;change" style="edgeLabel;html=1;align=center;verticalAlign=middle;resizable=0;points=[];" vertex="1" connectable="0" parent="3M0hzA5NV7Xp9_MbIo7x-28">
          <mxGeometry x="-0.2446" y="2" relative="1" as="geometry">
            <mxPoint x="-2" as="offset" />
          </mxGeometry>
        </mxCell>
        <mxCell id="3M0hzA5NV7Xp9_MbIo7x-12" value="Floor Technician Workstation" style="image;points=[];aspect=fixed;html=1;align=center;shadow=0;dashed=0;image=img/lib/allied_telesis/computer_and_terminals/Personal_Computer.svg;" vertex="1" parent="WIyWlLk6GJQsqaUBKTNV-1">
          <mxGeometry x="920" y="78.77000000000001" width="75.6" height="102.46" as="geometry" />
        </mxCell>
        <mxCell id="3M0hzA5NV7Xp9_MbIo7x-24" style="edgeStyle=orthogonalEdgeStyle;rounded=0;orthogonalLoop=1;jettySize=auto;html=1;exitX=1;exitY=0.25;exitDx=0;exitDy=0;fillColor=#dae8fc;strokeColor=#6c8ebf;" edge="1" parent="WIyWlLk6GJQsqaUBKTNV-1" source="3M0hzA5NV7Xp9_MbIo7x-19" target="3M0hzA5NV7Xp9_MbIo7x-12">
          <mxGeometry relative="1" as="geometry">
            <Array as="points">
              <mxPoint x="770" y="328" />
              <mxPoint x="770" y="130" />
            </Array>
          </mxGeometry>
        </mxCell>
        <mxCell id="3M0hzA5NV7Xp9_MbIo7x-37" value="Client requests &lt;br&gt;work instruction" style="edgeLabel;html=1;align=center;verticalAlign=middle;resizable=0;points=[];" vertex="1" connectable="0" parent="3M0hzA5NV7Xp9_MbIo7x-24">
          <mxGeometry x="0.0869" y="2" relative="1" as="geometry">
            <mxPoint as="offset" />
          </mxGeometry>
        </mxCell>
        <mxCell id="3M0hzA5NV7Xp9_MbIo7x-49" style="edgeStyle=orthogonalEdgeStyle;rounded=0;orthogonalLoop=1;jettySize=auto;html=1;exitX=1;exitY=1;exitDx=0;exitDy=0;entryX=0.5;entryY=0;entryDx=0;entryDy=0;fillColor=#d5e8d4;strokeColor=#82b366;" edge="1" parent="WIyWlLk6GJQsqaUBKTNV-1" source="3M0hzA5NV7Xp9_MbIo7x-19" target="3M0hzA5NV7Xp9_MbIo7x-36">
          <mxGeometry relative="1" as="geometry" />
        </mxCell>
        <mxCell id="3M0hzA5NV7Xp9_MbIo7x-50" value="Change stored" style="edgeLabel;html=1;align=center;verticalAlign=middle;resizable=0;points=[];" vertex="1" connectable="0" parent="3M0hzA5NV7Xp9_MbIo7x-49">
          <mxGeometry x="-0.1556" y="-3" relative="1" as="geometry">
            <mxPoint y="-3" as="offset" />
          </mxGeometry>
        </mxCell>
        <mxCell id="3M0hzA5NV7Xp9_MbIo7x-19" value="Web Server" style="image;aspect=fixed;perimeter=ellipsePerimeter;html=1;align=center;shadow=0;dashed=0;spacingTop=3;image=img/lib/active_directory/generic_server.svg;" vertex="1" parent="WIyWlLk6GJQsqaUBKTNV-1">
          <mxGeometry x="517" y="300" width="56" height="100" as="geometry" />
        </mxCell>
        <mxCell id="3M0hzA5NV7Xp9_MbIo7x-36" value="Work Instruction Data Storage" style="image;aspect=fixed;perimeter=ellipsePerimeter;html=1;align=center;shadow=0;dashed=0;spacingTop=3;image=img/lib/active_directory/databases.svg;" vertex="1" parent="WIyWlLk6GJQsqaUBKTNV-1">
          <mxGeometry x="680" y="470" width="71.43" height="70" as="geometry" />
        </mxCell>
        <mxCell id="3M0hzA5NV7Xp9_MbIo7x-55" value="&lt;h1&gt;Manufacturing Work Instructions&lt;/h1&gt;" style="text;html=1;strokeColor=none;fillColor=none;spacing=5;spacingTop=-20;whiteSpace=wrap;overflow=hidden;rounded=0;" vertex="1" parent="WIyWlLk6GJQsqaUBKTNV-1">
          <mxGeometry x="40" y="-800" width="410" height="40" as="geometry" />
        </mxCell>
        <mxCell id="3M0hzA5NV7Xp9_MbIo7x-121" value="What You See Is What You Get (WYSIWYG)" style="html=1;fillColor=none;strokeColor=none;fontSize=11;align=left;fontColor=#596780;whiteSpace=wrap;hachureGap=4;pointerEvents=0;fontFamily=Architects Daughter;fontSource=https%3A%2F%2Ffonts.googleapis.com%2Fcss%3Ffamily%3DArchitects%2BDaughter;sketch=1;curveFitting=1;jiggle=2;" vertex="1" parent="WIyWlLk6GJQsqaUBKTNV-1">
          <mxGeometry x="195.11" y="-730" width="270.95" height="20" as="geometry" />
        </mxCell>
        <mxCell id="3M0hzA5NV7Xp9_MbIo7x-122" value="Plain Text Domain Specific Language" style="html=1;fillColor=none;strokeColor=none;fontSize=11;align=left;fontColor=#596780;whiteSpace=wrap;sketch=1;hachureGap=4;pointerEvents=0;fontFamily=Architects Daughter;fontSource=https%3A%2F%2Ffonts.googleapis.com%2Fcss%3Ffamily%3DArchitects%2BDaughter;" vertex="1" parent="WIyWlLk6GJQsqaUBKTNV-1">
          <mxGeometry x="662.04" y="-730" width="204.02" height="20" as="geometry" />
        </mxCell>
        <mxCell id="3M0hzA5NV7Xp9_MbIo7x-158" value="" style="shape=line;strokeWidth=2;html=1;strokeColor=#DFE1E5;resizeWidth=1;sketch=1;hachureGap=4;pointerEvents=0;fontFamily=Architects Daughter;fontSource=https%3A%2F%2Ffonts.googleapis.com%2Fcss%3Ffamily%3DArchitects%2BDaughter;fontSize=20;sketchStyle=comic;" vertex="1" parent="WIyWlLk6GJQsqaUBKTNV-1">
          <mxGeometry x="70" y="-261" width="952.04" height="10" as="geometry" />
        </mxCell>
        <mxCell id="3M0hzA5NV7Xp9_MbIo7x-159" value="" style="shape=line;strokeWidth=2;html=1;strokeColor=#DFE1E5;resizeWidth=1;sketch=1;hachureGap=4;pointerEvents=0;fontFamily=Architects Daughter;fontSource=https%3A%2F%2Ffonts.googleapis.com%2Fcss%3Ffamily%3DArchitects%2BDaughter;fontSize=20;sketchStyle=comic;" vertex="1" parent="WIyWlLk6GJQsqaUBKTNV-1">
          <mxGeometry x="66.06" y="-710" width="965.98" height="10" as="geometry" />
        </mxCell>
        <mxCell id="3M0hzA5NV7Xp9_MbIo7x-161" value="&lt;span style=&quot;color: rgb(0, 0, 0); font-family: &amp;quot;Architects Daughter&amp;quot;; font-size: 12px; font-style: normal; font-variant-ligatures: normal; font-variant-caps: normal; font-weight: 400; letter-spacing: normal; orphans: 2; text-align: left; text-indent: 0px; text-transform: none; widows: 2; word-spacing: 0px; -webkit-text-stroke-width: 0px; background-color: rgb(251, 251, 251); text-decoration-thickness: initial; text-decoration-style: initial; text-decoration-color: initial; float: none; display: inline !important;&quot;&gt;Difficult to store revision control data in a WYSIWYG format.&lt;/span&gt;" style="text;whiteSpace=wrap;html=1;verticalAlign=middle;" vertex="1" parent="WIyWlLk6GJQsqaUBKTNV-1">
          <mxGeometry x="195.10999999999996" y="-680" width="390" height="20" as="geometry" />
        </mxCell>
        <mxCell id="3M0hzA5NV7Xp9_MbIo7x-162" value="&lt;font face=&quot;Architects Daughter&quot;&gt;- Authors and Users have difficulty using external document references (e.g. process documents, drawings)&lt;/font&gt;" style="text;whiteSpace=wrap;html=1;verticalAlign=middle;" vertex="1" parent="WIyWlLk6GJQsqaUBKTNV-1">
          <mxGeometry x="205.10999999999996" y="-600" width="390" height="30" as="geometry" />
        </mxCell>
        <mxCell id="3M0hzA5NV7Xp9_MbIo7x-163" value="&lt;font face=&quot;Architects Daughter&quot;&gt;Inline automations and notifications are impossible with WYSIWYG&lt;/font&gt;" style="text;whiteSpace=wrap;html=1;verticalAlign=middle;" vertex="1" parent="WIyWlLk6GJQsqaUBKTNV-1">
          <mxGeometry x="195.10999999999999" y="-520" width="390" height="30" as="geometry" />
        </mxCell>
        <mxCell id="3M0hzA5NV7Xp9_MbIo7x-164" value="" style="outlineConnect=0;fontColor=#ffffff;fillColor=#60a917;strokeColor=#2D7600;dashed=0;verticalLabelPosition=bottom;verticalAlign=top;align=center;html=1;fontSize=12;fontStyle=0;aspect=fixed;pointerEvents=1;shape=mxgraph.aws4.git_repository;sketch=1;curveFitting=1;jiggle=2;sketchStyle=comic;" vertex="1" parent="WIyWlLk6GJQsqaUBKTNV-1">
          <mxGeometry x="42.989999999999995" y="-690" width="23.07" height="30" as="geometry" />
        </mxCell>
        <mxCell id="3M0hzA5NV7Xp9_MbIo7x-166" value="&lt;font face=&quot;Architects Daughter&quot;&gt;External references&lt;/font&gt;" style="text;whiteSpace=wrap;html=1;verticalAlign=middle;sketchStyle=rough;comic=0;" vertex="1" parent="WIyWlLk6GJQsqaUBKTNV-1">
          <mxGeometry x="195.10999999999999" y="-630" width="390" height="30" as="geometry" />
        </mxCell>
        <mxCell id="3M0hzA5NV7Xp9_MbIo7x-179" value="&lt;font face=&quot;Architects Daughter&quot;&gt;- References to external resources are static&lt;/font&gt;" style="text;whiteSpace=wrap;html=1;verticalAlign=middle;" vertex="1" parent="WIyWlLk6GJQsqaUBKTNV-1">
          <mxGeometry x="205.10999999999996" y="-560" width="390" height="20" as="geometry" />
        </mxCell>
        <mxCell id="3M0hzA5NV7Xp9_MbIo7x-180" value="&lt;font face=&quot;Architects Daughter&quot;&gt;Global enforcement of standardized formatting is cumbersome&lt;/font&gt;" style="text;whiteSpace=wrap;html=1;verticalAlign=middle;" vertex="1" parent="WIyWlLk6GJQsqaUBKTNV-1">
          <mxGeometry x="195.10999999999999" y="-470" width="390" height="30" as="geometry" />
        </mxCell>
        <mxCell id="3M0hzA5NV7Xp9_MbIo7x-181" value="&lt;font face=&quot;Architects Daughter&quot;&gt;No validation of errors beyond spelling / grammar&lt;/font&gt;" style="text;whiteSpace=wrap;html=1;verticalAlign=middle;" vertex="1" parent="WIyWlLk6GJQsqaUBKTNV-1">
          <mxGeometry x="195.10999999999999" y="-420" width="390" height="30" as="geometry" />
        </mxCell>
        <mxCell id="3M0hzA5NV7Xp9_MbIo7x-184" value="&lt;font face=&quot;Architects Daughter&quot;&gt;Extensibility&lt;/font&gt;" style="text;whiteSpace=wrap;html=1;verticalAlign=middle;" vertex="1" parent="WIyWlLk6GJQsqaUBKTNV-1">
          <mxGeometry x="195.10999999999999" y="-377" width="390" height="30" as="geometry" />
        </mxCell>
        <mxCell id="3M0hzA5NV7Xp9_MbIo7x-185" value="&lt;font face=&quot;Architects Daughter&quot;&gt;- Little capability for user customization&lt;/font&gt;" style="text;whiteSpace=wrap;html=1;verticalAlign=middle;" vertex="1" parent="WIyWlLk6GJQsqaUBKTNV-1">
          <mxGeometry x="205.10999999999996" y="-354" width="390" height="30" as="geometry" />
        </mxCell>
        <mxCell id="3M0hzA5NV7Xp9_MbIo7x-187" value="Plain text work instructions can use mature industry-standard revision control software such as git" style="text;html=1;strokeColor=none;fillColor=none;align=left;verticalAlign=middle;whiteSpace=wrap;rounded=1;fontFamily=Architects Daughter;fontSource=https%3A%2F%2Ffonts.googleapis.com%2Fcss%3Ffamily%3DArchitects%2BDaughter;glass=0;arcSize=28;" vertex="1" parent="WIyWlLk6GJQsqaUBKTNV-1">
          <mxGeometry x="667.76" y="-685" width="340" height="30" as="geometry" />
        </mxCell>
        <mxCell id="3M0hzA5NV7Xp9_MbIo7x-189" value="&lt;font face=&quot;Architects Daughter&quot;&gt;WYSIWYG work instructions require bespoke integration solutions&lt;/font&gt;" style="text;whiteSpace=wrap;html=1;verticalAlign=middle;" vertex="1" parent="WIyWlLk6GJQsqaUBKTNV-1">
          <mxGeometry x="195.10999999999996" y="-315" width="390" height="30" as="geometry" />
        </mxCell>
        <mxCell id="3M0hzA5NV7Xp9_MbIo7x-191" value="" style="sketch=1;pointerEvents=1;shadow=0;dashed=0;html=1;strokeColor=none;fillColor=#a0522d;labelPosition=center;verticalLabelPosition=bottom;verticalAlign=top;outlineConnect=0;align=center;shape=mxgraph.office.concepts.link;hachureGap=4;jiggle=2;curveFitting=1;fontFamily=Architects Daughter;fontSource=https%3A%2F%2Ffonts.googleapis.com%2Fcss%3Ffamily%3DArchitects%2BDaughter;fontSize=20;zigzagOffset=-5;dashGap=-4;dashOffset=-2;sketchStyle=comic;fontColor=#ffffff;" vertex="1" parent="WIyWlLk6GJQsqaUBKTNV-1">
          <mxGeometry x="40" y="-600" width="29.05" height="10" as="geometry" />
        </mxCell>
        <mxCell id="3M0hzA5NV7Xp9_MbIo7x-192" value="Topic" style="html=1;fillColor=none;strokeColor=none;fontSize=11;align=left;fontColor=#596780;whiteSpace=wrap;hachureGap=4;pointerEvents=0;fontFamily=Architects Daughter;fontSource=https%3A%2F%2Ffonts.googleapis.com%2Fcss%3Ffamily%3DArchitects%2BDaughter;sketch=1;curveFitting=1;jiggle=2;" vertex="1" parent="WIyWlLk6GJQsqaUBKTNV-1">
          <mxGeometry x="76.06" y="-730" width="60" height="20" as="geometry" />
        </mxCell>
        <mxCell id="3M0hzA5NV7Xp9_MbIo7x-194" value="&lt;font face=&quot;Architects Daughter&quot;&gt;External references&lt;/font&gt;" style="text;whiteSpace=wrap;html=1;verticalAlign=middle;" vertex="1" parent="WIyWlLk6GJQsqaUBKTNV-1">
          <mxGeometry x="76.06" y="-610" width="90" height="30" as="geometry" />
        </mxCell>
        <mxCell id="3M0hzA5NV7Xp9_MbIo7x-195" value="&lt;font face=&quot;Architects Daughter&quot;&gt;Revision control&lt;/font&gt;" style="text;whiteSpace=wrap;html=1;verticalAlign=middle;" vertex="1" parent="WIyWlLk6GJQsqaUBKTNV-1">
          <mxGeometry x="76.06" y="-685" width="90" height="30" as="geometry" />
        </mxCell>
        <mxCell id="3M0hzA5NV7Xp9_MbIo7x-196" value="&lt;font face=&quot;Architects Daughter&quot;&gt;Automation&lt;/font&gt;" style="text;whiteSpace=wrap;html=1;verticalAlign=middle;" vertex="1" parent="WIyWlLk6GJQsqaUBKTNV-1">
          <mxGeometry x="76.06" y="-520" width="90" height="30" as="geometry" />
        </mxCell>
        <mxCell id="3M0hzA5NV7Xp9_MbIo7x-197" value="&lt;font face=&quot;Architects Daughter&quot;&gt;Standardization&lt;/font&gt;" style="text;whiteSpace=wrap;html=1;verticalAlign=middle;" vertex="1" parent="WIyWlLk6GJQsqaUBKTNV-1">
          <mxGeometry x="76.06" y="-470" width="90" height="30" as="geometry" />
        </mxCell>
        <mxCell id="3M0hzA5NV7Xp9_MbIo7x-198" value="&lt;font face=&quot;Architects Daughter&quot;&gt;Validation&lt;/font&gt;" style="text;whiteSpace=wrap;html=1;verticalAlign=middle;" vertex="1" parent="WIyWlLk6GJQsqaUBKTNV-1">
          <mxGeometry x="76.06" y="-420" width="90" height="30" as="geometry" />
        </mxCell>
        <mxCell id="3M0hzA5NV7Xp9_MbIo7x-199" value="&lt;font face=&quot;Architects Daughter&quot;&gt;Extensibility&lt;/font&gt;" style="text;whiteSpace=wrap;html=1;verticalAlign=middle;" vertex="1" parent="WIyWlLk6GJQsqaUBKTNV-1">
          <mxGeometry x="76.06" y="-370" width="90" height="30" as="geometry" />
        </mxCell>
        <mxCell id="3M0hzA5NV7Xp9_MbIo7x-200" value="&lt;font face=&quot;Architects Daughter&quot;&gt;Interoperabiilty&lt;/font&gt;" style="text;whiteSpace=wrap;html=1;verticalAlign=middle;" vertex="1" parent="WIyWlLk6GJQsqaUBKTNV-1">
          <mxGeometry x="76.06" y="-315" width="90" height="30" as="geometry" />
        </mxCell>
        <mxCell id="3M0hzA5NV7Xp9_MbIo7x-205" value="" style="sketch=1;outlineConnect=0;fillColor=#0050ef;strokeColor=#001DBC;dashed=0;verticalLabelPosition=bottom;verticalAlign=top;align=center;html=1;fontSize=12;fontStyle=0;aspect=fixed;pointerEvents=1;shape=mxgraph.aws4.automation;curveFitting=1;jiggle=2;sketchStyle=comic;fontColor=#ffffff;" vertex="1" parent="WIyWlLk6GJQsqaUBKTNV-1">
          <mxGeometry x="42.989999999999995" y="-516.76" width="23.53" height="23.53" as="geometry" />
        </mxCell>
        <mxCell id="3M0hzA5NV7Xp9_MbIo7x-207" value="" style="sketch=1;aspect=fixed;pointerEvents=1;shadow=0;dashed=0;html=1;labelPosition=center;verticalLabelPosition=bottom;verticalAlign=top;align=center;shape=mxgraph.mscae.enterprise.lock_unlocked;fillColor=#6a00ff;strokeColor=none;fontColor=#ffffff;curveFitting=1;jiggle=2;sketchStyle=comic;" vertex="1" parent="WIyWlLk6GJQsqaUBKTNV-1">
          <mxGeometry x="47.13" y="-465" width="14.8" height="20" as="geometry" />
        </mxCell>
        <mxCell id="3M0hzA5NV7Xp9_MbIo7x-215" value="" style="group;sketch=1;curveFitting=1;jiggle=2;sketchStyle=comic;strokeColor=none;fillColor=none;movable=1;resizable=1;rotatable=1;deletable=1;editable=1;locked=0;connectable=1;" vertex="1" connectable="0" parent="WIyWlLk6GJQsqaUBKTNV-1">
          <mxGeometry x="44" y="-420" width="26.375081967213113" height="32.147887323943664" as="geometry" />
        </mxCell>
        <mxCell id="3M0hzA5NV7Xp9_MbIo7x-216" value="&lt;br&gt;&lt;font color=&quot;#ffffff&quot;&gt;&lt;br&gt;&lt;/font&gt;" style="triangle;whiteSpace=wrap;html=1;rotation=-90;rounded=1;fillColor=none;strokeColor=default;arcSize=15;horizontal=1;verticalAlign=middle;sketch=1;curveFitting=1;jiggle=2;sketchStyle=comic;movable=1;resizable=1;rotatable=1;deletable=1;editable=1;locked=0;connectable=1;" vertex="1" parent="3M0hzA5NV7Xp9_MbIo7x-215">
          <mxGeometry width="22.504918032786886" height="25.352112676056343" as="geometry" />
        </mxCell>
        <mxCell id="3M0hzA5NV7Xp9_MbIo7x-217" value="&lt;font color=&quot;#121212&quot; size=&quot;1&quot; style=&quot;&quot;&gt;&lt;b style=&quot;font-size: 13px;&quot;&gt;!&lt;/b&gt;&lt;/font&gt;" style="text;html=1;align=center;verticalAlign=middle;resizable=1;points=[];autosize=1;strokeColor=none;fillColor=none;fontColor=#FFFFFF;fontFamily=Architects Daughter;fontSource=https://fonts.googleapis.com/css?family=Architects+Daughter;movable=1;rotatable=1;deletable=1;editable=1;locked=0;connectable=1;" vertex="1" parent="3M0hzA5NV7Xp9_MbIo7x-215">
          <mxGeometry x="-3.6249180327868853" y="2.147887323943662" width="30" height="30" as="geometry" />
        </mxCell>
      </root>
    </mxGraphModel>
  </diagram>
</mxfile>
